HIERARCHY
ROOT Hips
{
	OFFSET 0.000000 0.000000 0.000000
	CHANNELS 6 Xposition Yposition Zposition Yrotation Xrotation Zrotation
	JOINT Chest
	{
		OFFSET 0.000000 -0.009281 11.569106
		CHANNELS 3 Yrotation Xrotation Zrotation
		JOINT Chest2
		{
			OFFSET -0.000000 0.016865 9.269641
			CHANNELS 3 Yrotation Xrotation Zrotation
			JOINT Chest3
			{
				OFFSET -0.000000 0.000001 8.374491
				CHANNELS 3 Yrotation Xrotation Zrotation
				JOINT Chest4
				{
					OFFSET -0.000000 0.000001 8.374493
					CHANNELS 3 Yrotation Xrotation Zrotation
					JOINT Neck
					{
						OFFSET -0.000000 0.000002 12.152554
						CHANNELS 3 Yrotation Xrotation Zrotation
						JOINT Head
						{
							OFFSET -0.000000 0.040101 7.802319
							CHANNELS 3 Yrotation Xrotation Zrotation
							End Site
							{
								OFFSET -0.000000 0.020947 14.853096
							}
						}
					}
					JOINT RightCollar
					{
						OFFSET 2.894404 0.000001 6.791374
						CHANNELS 3 Yrotation Xrotation Zrotation
						JOINT RightShoulder
						{
							OFFSET 13.574684 0.000001 0.000000
							CHANNELS 3 Yrotation Xrotation Zrotation
							JOINT RightElbow
							{
								OFFSET 23.923903 0.000002 0.000000
								CHANNELS 3 Yrotation Xrotation Zrotation
								JOINT RightWrist
								{
									OFFSET 19.846718 0.012767 0.000000
									CHANNELS 3 Yrotation Xrotation Zrotation
									End Site
									{
										OFFSET 14.973145 0.000001 0.000000
									}
								}
							}
						}
					}
					JOINT LeftCollar
					{
						OFFSET -2.894404 0.000001 6.791374
						CHANNELS 3 Yrotation Xrotation Zrotation
						JOINT LeftShoulder
						{
							OFFSET -13.574684 -0.000001 0.000000
							CHANNELS 3 Yrotation Xrotation Zrotation
							JOINT LeftElbow
							{
								OFFSET -23.923903 -0.000002 0.000000
								CHANNELS 3 Yrotation Xrotation Zrotation
								JOINT LeftWrist
								{
									OFFSET -19.846718 0.012763 0.000000
									CHANNELS 3 Yrotation Xrotation Zrotation
									End Site
									{
										OFFSET -14.973145 -0.000001 0.000000
									}
								}
							}
						}
					}
				}
			}
		}
	}
	JOINT RightHip
	{
		OFFSET 9.469263 0.004643 0.045487
		CHANNELS 3 Yrotation Xrotation Zrotation
		JOINT RightKnee
		{
			OFFSET 0.000000 0.002661 -40.478676
			CHANNELS 3 Yrotation Xrotation Zrotation
			JOINT RightAnkle
			{
				OFFSET 0.000000 0.049106 -35.224068
				CHANNELS 3 Yrotation Xrotation Zrotation
				JOINT RightToe
				{
					OFFSET -0.000001 12.539529 -6.151390
					CHANNELS 3 Yrotation Xrotation Zrotation
					End Site
					{
						OFFSET -0.000001 5.044994 -1.291870
					}
				}
			}
		}
	}
	JOINT LeftHip
	{
		OFFSET -9.469263 0.004641 0.045487
		CHANNELS 3 Yrotation Xrotation Zrotation
		JOINT LeftKnee
		{
			OFFSET 0.000000 0.002661 -40.478676
			CHANNELS 3 Yrotation Xrotation Zrotation
			JOINT LeftAnkle
			{
				OFFSET 0.000000 0.049106 -35.224068
				CHANNELS 3 Yrotation Xrotation Zrotation
				JOINT LeftToe
				{
					OFFSET -0.000001 12.539529 -6.151390
					CHANNELS 3 Yrotation Xrotation Zrotation
					End Site
					{
						OFFSET -0.000001 5.044994 -1.291870
					}
				}
			}
		}
	}
}
MOTION
Frames: 13
Frame Time: 0.016667
70.772278 -17.670658 82.200256 -3.696190 1.568092 -105.436210 -1.711800 -0.793109 0.334304 -0.528354 -0.412776 -0.004467 -0.528354 -0.412775 -0.004467 -0.396266 -0.309578 -0.003708 2.368945 -17.624632 -5.742619 2.421532 3.433408 -9.788230 8.461145 2.476592 -1.878547 48.120728 -18.635502 -8.144681 19.251074 -36.434029 39.061418 -26.111214 39.610463 66.768999 -7.812938 3.963253 -3.504001 -43.621543 -7.471265 10.793255 -35.968346 -54.949114 -18.283535 14.224100 12.847602 -54.217048 -1.206311 -13.413231 -20.752198 6.746980 -22.005340 -5.720300 15.631993 -9.465198 24.715803 -26.306492 22.437354 -5.466683 -11.051193 -0.755223 -2.418211 -3.269409 -1.626594 7.289491 11.349078 -3.723080 12.645714 -0.738248 -0.496625 0.049741 
71.034439 -17.706299 82.167969 -3.616762 1.641077 -105.523342 -1.669601 -0.854992 0.386753 -0.499298 -0.439131 0.010439 -0.499298 -0.439131 0.010443 -0.374464 -0.329357 0.007472 2.377655 -17.527778 -5.783336 2.418056 3.612208 -9.862593 8.476626 2.622098 -1.823402 48.068706 -18.555821 -8.345180 19.192579 -36.457484 39.293904 -26.090629 39.531663 66.744984 -7.793977 3.934359 -3.534190 -43.702702 -7.395585 10.707740 -35.874851 -54.947168 -18.313040 14.221334 12.782480 -54.157816 -1.420760 -13.469725 -20.714270 6.773276 -22.151808 -5.813084 16.330523 -9.616132 24.883761 -20.155475 17.500370 -3.245126 -11.166008 -0.841173 -2.434236 -3.197387 -1.656547 7.214592 11.424121 -3.536491 12.811474 -0.673743 -0.510086 0.075451 
71.278175 -17.744152 82.139420 -3.535252 1.680218 -105.615891 -1.606849 -0.931403 0.446425 -0.471633 -0.475957 0.030283 -0.471633 -0.475957 0.030282 -0.353699 -0.356991 0.022343 2.390509 -17.427021 -5.827444 2.420742 3.798362 -9.941972 8.481121 2.709323 -1.787745 47.979777 -18.433791 -8.473479 19.176776 -36.512402 39.542229 -26.090508 39.447273 66.722001 -7.764359 3.931405 -3.562479 -43.774734 -7.382173 10.591630 -35.813219 -54.931882 -18.327313 14.218615 12.752150 -54.121244 -1.618922 -13.498205 -20.657875 6.824884 -22.322423 -5.934665 16.837854 -9.770704 25.177022 -15.243976 13.284065 -1.846388 -11.240107 -0.910153 -2.498870 -3.144193 -1.704563 7.186250 11.501414 -3.338155 12.989654 -0.613260 -0.531501 0.082793 
71.514214 -17.767378 82.114166 -3.474266 1.720702 -105.695948 -1.558889 -1.034276 0.501982 -0.446099 -0.519476 0.054163 -0.446099 -0.519476 0.054166 -0.334526 -0.389647 0.040245 2.404164 -17.323101 -5.875158 2.423371 3.990290 -10.027905 8.489746 2.742847 -1.751604 47.865371 -18.322314 -8.539179 19.196964 -36.556665 39.800868 -26.109800 39.405004 66.683895 -7.738151 3.929724 -3.597547 -43.830512 -7.426612 10.442785 -35.754896 -54.879761 -18.353200 14.203871 12.744349 -54.095296 -1.798728 -13.543354 -20.683949 6.824190 -22.499637 -5.999507 17.297980 -9.944537 25.461740 -11.400700 9.885709 -1.012461 -11.311344 -0.995510 -2.586156 -3.112404 -1.745076 7.240030 11.585343 -3.137995 13.016028 -0.554483 -0.543556 0.087639 
71.748146 -17.792547 82.093399 -3.417852 1.735801 -105.751115 -1.493278 -1.151241 0.541189 -0.423961 -0.563169 0.076813 -0.423961 -0.563169 0.076810 -0.317897 -0.422430 0.057218 2.417713 -17.220674 -5.920968 2.426431 4.179491 -10.110393 8.505055 2.746672 -1.704375 47.760067 -18.281679 -8.563555 19.269185 -36.532424 40.025974 -26.138623 39.393055 66.647552 -7.698750 3.880965 -3.634387 -43.888101 -7.473609 10.261650 -35.665564 -54.807443 -18.419944 14.180027 12.721845 -54.065271 -1.948876 -13.593285 -20.775057 6.786638 -22.652090 -6.026140 17.750948 -10.230551 25.747709 -8.487508 7.276393 -0.549832 -11.364576 -1.092770 -2.700121 -3.084991 -1.779853 7.300498 11.667018 -2.944858 13.083428 -0.497193 -0.551352 0.095067 
71.987656 -17.808807 82.078209 -3.366535 1.729507 -105.766627 -1.410495 -1.282892 0.551318 -0.406312 -0.606539 0.095461 -0.406312 -0.606539 0.095462 -0.304637 -0.454968 0.071194 2.438640 -17.121556 -5.962651 2.444630 4.363144 -10.182713 8.512302 2.761834 -1.678941 47.681691 -18.304193 -8.552412 19.360067 -36.480440 40.198245 -26.167220 39.398638 66.629540 -7.661485 3.837542 -3.669758 -43.940847 -7.513452 10.086756 -35.546453 -54.745619 -18.516849 14.159702 12.670225 -54.041140 -2.061391 -13.650983 -20.887736 6.720927 -22.778211 -6.051645 18.290664 -10.600145 25.964419 -6.362016 5.328312 -0.350021 -11.395778 -1.205188 -2.840914 -3.064893 -1.818845 7.306124 11.758086 -2.790202 13.157952 -0.461604 -0.528607 0.076368 
72.235962 -17.839426 82.069511 -3.320975 1.701757 -105.743848 -1.310250 -1.416559 0.533338 -0.394126 -0.648739 0.108280 -0.394125 -0.648739 0.108275 -0.295477 -0.486624 0.080788 2.469280 -17.035221 -5.998810 2.483397 4.523905 -10.241129 8.522891 2.767964 -1.656110 47.625628 -18.319940 -8.514864 19.422864 -36.443096 40.334630 -26.196414 39.417076 66.624705 -7.633175 3.808480 -3.695786 -43.975900 -7.535030 9.929666 -35.422266 -54.724705 -18.618944 14.151442 12.623205 -54.033637 -2.139281 -13.710677 -20.971782 6.674514 -22.878501 -6.018530 18.648940 -11.074952 26.063227 -4.725798 4.002902 -0.179442 -11.402720 -1.328936 -3.011119 -3.065703 -1.869258 7.290390 11.830722 -2.615574 13.370350 -0.407393 -0.517244 0.068379 
72.493103 -17.885439 82.071014 -3.276105 1.629377 -105.663498 -1.168943 -1.550342 0.477850 -0.384743 -0.691759 0.114671 -0.384743 -0.691759 0.114671 -0.288424 -0.518891 0.085565 2.509532 -16.963495 -6.031223 2.542100 4.658329 -10.288892 8.533626 2.754840 -1.625113 47.589903 -18.311414 -8.470827 19.443887 -36.403136 40.461327 -26.216838 39.444161 66.632313 -7.612150 3.794065 -3.699840 -43.994427 -7.539448 9.774353 -35.357830 -54.740923 -18.659834 14.139660 12.587509 -54.051505 -2.148452 -13.771046 -21.025353 6.693719 -22.929491 -5.907876 18.561162 -11.730333 26.135748 -3.363731 3.241459 0.031982 -11.339679 -1.483175 -3.216330 -3.081552 -1.916286 7.279747 11.872564 -2.427621 13.529553 -0.347963 -0.508296 0.022877 
72.749283 -17.974148 82.086845 -3.202762 1.483072 -105.549481 -0.960668 -1.666327 0.415632 -0.376852 -0.733195 0.115144 -0.376852 -0.733195 0.115144 -0.282497 -0.549968 0.085907 2.553901 -16.907261 -6.060590 2.610429 4.764402 -10.329153 8.549843 2.776702 -1.609027 47.567695 -18.320135 -8.457769 19.443119 -36.361519 40.596811 -26.239867 39.476403 66.636002 -7.595600 3.779772 -3.712303 -43.997808 -7.534489 9.631233 -35.345505 -54.767728 -18.640452 14.122811 12.593823 -54.091786 -2.014590 -13.840537 -21.051772 6.803159 -22.869084 -5.622904 18.171524 -12.407953 25.810742 -2.202688 2.819887 0.279823 -11.176703 -1.637734 -3.398347 -3.110317 -1.962151 7.281375 11.864662 -2.208703 13.715962 -0.266975 -0.510603 -0.038173 
72.991638 -18.090424 82.115692 -3.061636 1.284590 -105.437760 -0.696529 -1.711654 0.383677 -0.364336 -0.774618 0.108694 -0.364336 -0.774618 0.108696 -0.273109 -0.581029 0.081059 2.589542 -16.864360 -6.086928 2.664504 4.845303 -10.366502 8.553149 2.758006 -1.610114 47.534299 -18.295623 -8.409331 19.452903 -36.316246 40.723633 -26.254161 39.510961 66.652114 -7.596811 3.767038 -3.728693 -44.016580 -7.554857 9.511447 -35.327108 -54.764566 -18.597155 14.094935 12.626988 -54.151024 -1.792298 -13.835994 -20.965081 7.052684 -22.777161 -5.124038 17.314412 -13.033611 25.187953 -1.101907 2.630931 0.656877 -10.895398 -1.746287 -3.518297 -3.186108 -2.007150 7.299740 11.883683 -1.875340 13.743311 -0.214207 -0.609771 -0.202789 
73.223007 -18.226358 82.153412 -2.925615 1.112420 -105.336325 -0.470967 -1.738856 0.393731 -0.346564 -0.816524 0.095327 -0.346564 -0.816524 0.095324 -0.259791 -0.612448 0.071030 2.612681 -16.831128 -6.114667 2.695572 4.907445 -10.410592 8.560803 2.761520 -1.610833 47.485056 -18.259865 -8.379063 19.457739 -36.268906 40.850890 -26.261833 39.549316 66.678663 -7.602707 3.740466 -3.744376 -44.068579 -7.596868 9.402474 -35.265346 -54.723571 -18.570835 14.055541 12.670693 -54.206126 -1.545718 -13.775312 -20.785942 7.302196 -22.738437 -4.716343 16.362659 -13.698095 24.449094 -0.214073 2.604058 1.012874 -10.643862 -1.829936 -3.606847 -3.271083 -2.065553 7.396687 11.800257 -1.575250 13.964688 -0.110390 -0.640875 -0.341125 
73.472000 -18.338724 82.190369 -2.908128 1.049180 -105.121509 -0.379187 -1.827600 0.325919 -0.328010 -0.859370 0.074291 -0.328010 -0.859370 0.074290 -0.245898 -0.644568 0.055257 2.628209 -16.810504 -6.146321 2.711980 4.945600 -10.464301 8.564859 2.767903 -1.604141 47.440786 -18.204227 -8.363417 19.421872 -36.219715 40.986988 -26.260331 39.575038 66.700472 -7.596580 3.680493 -3.749595 -44.151101 -7.626245 9.274122 -35.194455 -54.666280 -18.539333 14.004406 12.730611 -54.266703 -1.364617 -13.758032 -20.727568 7.431258 -22.834267 -4.754770 15.643674 -14.316462 23.795505 0.411901 2.541450 1.315431 -10.518239 -2.017744 -3.751174 -3.347110 -2.125917 7.478395 11.667740 -1.324974 14.065505 -0.020819 -0.607444 -0.459782 
73.722908 -18.446812 82.219109 -2.931747 1.048452 -104.858191 -0.350962 -1.923367 0.247782 -0.312960 -0.900282 0.049734 -0.312960 -0.900282 0.049735 -0.234642 -0.675237 0.036840 2.645487 -16.803503 -6.189176 2.728569 4.958225 -10.537793 8.551332 2.760000 -1.617938 47.411406 -18.133623 -8.327280 19.356812 -36.164141 41.111906 -26.244356 39.572822 66.717240 -7.591064 3.620723 -3.750658 -44.228378 -7.649973 9.141537 -35.164068 -54.617177 -18.479613 13.975298 12.809343 -54.350090 -1.298624 -13.694830 -20.742707 7.569365 -23.121316 -5.144110 14.796790 -15.021063 23.575373 0.899621 2.574824 1.583356 -10.491515 -2.233314 -3.888475 -3.390902 -2.171872 7.425813 11.538408 -1.137401 14.245129 0.035936 -0.544795 -0.525650 
